<svg height="512" width="512" xmlns="http://www.w3.org/2000/svg"><path d="m512 137.0005188s-3.1794739-13.1628113-20.6642761-31.7261505c-18.3747253-19.5078888-35.9238586-13.4999542-36.348053-15.5250015-.4237061-2.0250473 2.331604-6.0751419 2.331604-6.0751419s-7.8416443 2.0250473-25.2211609 18.5630951c-11.0718994 10.5361099-20.6181641 21.9741821-25.3799744 27.9286346-.1538086-.1220856-.3128967-.236084-.477478-.3422546 1.6285706-7.0715942 7.7146301-23.8622513 38.1451721-66.4002228-36.5559387 40.770359-42.13974 59.2481728-42.7427673 65.689743-2.5785217.7168121-4.4849243 3.2165833-4.4849243 6.1994324 0 2.7931519 1.671936 5.162384 4.0010986 6.0420685.8139648 7.9402313 1.7328186 24.4148712 1.4877319 46.9468231-.2675476 24.6002045-6.6775208 45.1720581-9.3296204 52.6590729-.3504333-.1928711-.655365-.3000946-.8757324-.2782745-1.1094055.1097565-5.8353882 8.0381012-7.3274231 11.577301-1.4920959 3.5388641.050415 6.0995789.050415 6.0995789s-.0192261.0500488-.0543213.1395264c-.3241272.4017639-.5226135.9007874-.6191406 1.5145874-1.241272 2.9517517-4.1968079 9.5611877-8.7842407 17.3362122-.3232117-.2393494-.5666809-.3681335-.5666809-.3681335s-1.3922119-.2531433-2.4047241.5062561c-1.0125427.7593994-3.2289124 4.1460266-10.6315002 7.8470459-2.5221252 1.2610474-4.8137817 1.9980164-6.8411865 2.4385986 2.3684082-11.9364014 4.2661133-25.8119812 5.1958313-41.9270172 3.3836365-58.6489868-35.9445801-88.0895386-67.0796814-89.102066-.8897705-.0289307-1.7750549-.0401764-2.6564331-.0378265-.0002747-.1640167.0091248-.322998.0405579-.468689.4504089-2.08461.5062866-2.6998901-1.8564453-.6748505-.4793701.4108124-.9130249.8186035-1.2977295 1.2151947-1.0133667.0454254-2.0193176.1131592-3.018219.2000885-.0704651-.6198578-.1240234-1.4288788-.0713196-2.4277954.0845337-1.6030884.5062561-2.6999054-1.8564758-.6748505-1.6160583 1.3849792-2.7238464 2.7369995-3.1106262 3.7271271-.5628662.0908051-1.1237488.1861115-1.6803894.2905121-.3320923-.8865051-1.1340332-2.2406616-1.0309753-3.4270935.2180176-2.5077972.9284668-2.9532776-.7865906-1.3650208-2.082428 1.9285736-4.300293 4.8162231-4.6910706 6.365036-.688385.2053375-1.3688354.4241333-2.0439453.6516724-.3996582-.3942108-1.575592-1.5095367-1.8442383-3.7954712-.2773743-2.3594818-.2531433-3.5438385-1.6873779-1.096817-1.5291138 2.609024-2.4255981 5.4521637-2.7991028 7.4452362-.6688843.3177338-1.328125.6483307-1.9785767.9903107-.5708923-.6924438-1.1386719-1.7860107-1.2020569-3.6962738-.1018372-3.0763397.8632507-5.5698242-1.4396973-1.4399261-1.218689 2.1847382-2.4047852 5.4980621-3.1113281 8.6514435-.764801.5402527-1.5133514 1.0982056-2.2409515 1.6777649-.0901642-1.0803833-.1545258-2.2884674-.1750488-3.6298828-.0460052-3.0143433.4548492-6.286499-1.4357605-.5304871-.5558167 1.6919098-1.1157532 4.1010742-1.4952698 6.8687592-8.6160889 8.1996613-13.8520508 19.5650024-13.7385254 33.5298309.0678558 8.3450165 1.0456848 14.9424286 2.5907898 20.0982056-2.0331726 2.7697601-2.2015686 14.6869354-.2283173 17.4494629 1.5914612 2.2280273 10.7140656 7.5383148 12.5722504 8.5221558 4.3032227 2.278183 4.809494 13.1628113 2.531311 18.2254333s2.278183 6.0751343 6.0751495 6.8345337 8.8595581-.5062561 9.8721008-2.531311c1.0125122-2.0250549-3.2907104-6.5813904-5.0626221-15.9472351-1.7719116-9.36586 2.7844238-10.1252441 2.7844238-10.1252441s2.0250549.5062561 5.0626221 5.3157501c2.3595276 3.7359161 4.8422546 6.6847382 7.1555176 8.8009796-.7278442.9759521-2.009552 2.2589111-4.2865295 3.6869812 2.5429993.115448 5.1245117-1.0949097 6.4992676-1.8691711.5195312.3725586 1.020813.6884766 1.5053101.9606934-.3312988.3526001-.6913147.7127991-1.0859985 1.0770569.8504639-.0680237 1.6285095-.2417297 2.3349304-.471283.6519775.2642212 1.2595215.429718 1.7997131.471283 3.2907104.2531433 12.1502686-7.8470459 12.1502686-9.3658447 0-1.5187836-4.5563354-3.7969666-7.5939026-7.5939178-3.0375671-3.7969666-3.0375671-8.8595886-3.0375671-8.8595886s6.3282471-5.5688782-9.618988-23.5411682c-6.4406128-7.2584839-13.5412903-11.9973907-19.7190247-15.0691071-1.297821-14.8607788 8.2175293-28.2781982 32.1224365-27.0349274 35.6914673 1.8562164 51.3687744 39.7071991 46.8292236 76.0235748-.1122742.8980408-.2425537 1.7888184-.3849487 2.6741791-.0055542.0052032-.0109863.0098572-.0165405.0150909-1.8722534 1.7562408-1.4253845 1.8591766-.3124695 1.8917694-.364624 1.9585724-.7987671 3.8842926-1.2932739 5.7741241-.2124329.1169128-.4271545.2384644-.6456909.3690186-2.6436768 1.5766296-1.5228271 1.545166-.0015564 1.9609985-.4453125 1.526825-.9264526 3.0298767-1.4413147 4.5057373-.6047363.1673889-1.2543335.3849487-1.938324.6578064-2.8912659 1.1509094-1.7239685 1.2871399-.2650146 1.9567871.3867798.1775513.7312622.3559265 1.0431213.5298157-.6563721 1.6905518-1.3504639 3.3442383-2.0752869 4.9571228-.5911255.0901489-1.2271729.2201233-1.8990784.3944397-3.0128479.7796326-1.8717957 1.0609436-.5082397 1.9083252.3780212.2348938.7112122.46521 1.0086365.6855469-.7420654 1.5277405-1.5064392 3.0162964-2.2860107 4.4624939-.9463501.0253906-2.1116943.2023926-3.4035645.5375366-3.0128784.7796326-1.8717957 1.0609436-.5082397 1.9083557.762085.4735718 1.3489685.9295959 1.8003845 1.3163757-.8565369 1.4689941-1.7206726 2.8874207-2.5829163 4.2528687-1.0543518-.1311951-2.6072083.0297241-4.4046936.4960327-3.0128479.7796326-1.8717651 1.0609436-.5082397 1.9083557 1.0327759.6417236 1.7465515 1.2520752 2.2306824 1.698761-.9159546 1.3553162-1.8160706 2.6453552-2.6875916 3.8660583-.9901733-.3783569-2.7647705-.4404297-4.9102478-.1279297-3.0795898.4474182-1.9761047.8513184-.7129211 1.8420715 1.430542 1.1217957 2.1638184 2.0984192 2.5309753 2.5133362-.4632874.6205444-.9112549 1.2164917-1.3396912 1.7844849-.9380493-1.2404785-3.1703491-2.6328125-5.2433472-4.1134033-1.7719116-1.2656555-5.1891785-2.7844238-6.2017212-2.7844238-1.0125122 0-4.218689 5.7379761-21.6847229 4.2191772-17.4660034-1.5187988-18.5630798-3.206665-20.0818787-3.206665-1.4520569 0-4.5930176 1.1540527-4.8668518 1.2556763-1.4980316-.8181152-2.9741364-1.6843567-4.4146881-2.6053772-20.58815-13.1628113-32.4007568-25.9884338-32.4007568-25.9884338s2.3627167-2.7001343-1.0125275-6.0751343c-2.4473419-2.4471741-8.4269409-7.0216675-12.3134003-9.3529968-3.1921234-4.3904724-8.5444641-12.8549194-15.0247345-27.4352722-10.1259155-22.7830505-10.9481506-38.5409393-10.4416809-45.422348 2.0396423-1.6068268 3.353775-4.0932922 3.353775-6.8914642 0-4.4506073-3.3163147-8.1182556-7.6108856-8.6889801-4.461441-9.2831573-21.5400238-32.3119202-86.2161331-81.0879364 62.9975815 53.9631042 75.2947006 75.067215 78.5567856 83.8912354-.1235657.136261-.2458649.2731171-.3607788.4169922-8.0245819-6.224884-22.3197479-16.8013153-38.7075882-26.594101-27.67556-16.5380554-40.1635208-18.5631027-40.1635208-18.5631027s4.3877716 4.050087 3.7126694 6.0751419c-.6750946 2.0250397-28.6208458-3.9828873-57.882431 15.5249939-27.844647 18.5633539-32.9072648 31.7261499-32.9072648 31.7261499s11.7266474-16.374527 33.6800652-27.8355865c-.2884178 7.5358429-.906414 42.3296814 9.5210228 87.911911 10.9758148 47.9794769 31.5630035 93.328537 34.4259262 99.5154877.0899811 3.8018799.3373032 5.7867126.3373032 5.7867126s3.1544342-38.163147 16.1230927-77.7989197c3.7254028 6.0311584 16.1739273 23.8363647 44.2909012 44.7233276 33.7408142 25.0646057 49.7250061 32.3786621 51.1799927 33.0223694.0325928 3.3724976.1212769 5.1158447.1212769 5.1158447s.1090851-2.1065063.3738251-5.6064758c1.4226532-2.0509338 6.7089844-9.4920044 11.7764587-14.3063354 5.841568-5.5497437 10.4165344-8.5697327 11.5428925-9.2825928.6656036 2.3427124 1.3296356 4.3590088 1.9573364 5.9073486-.4060211-2.0809326-.7704773-4.0890808-1.1002502-6.0326843 2.3278351.2099915 11.5430756 1.4426575 25.7382507 8.3954163 7.3311462 3.5907898 13.0005188 8.4404297 17.0449066 12.7286987-.1127319.0328064-.2252197.0620422-.3380127.0964355 0 0 2.6444702 2.3721924 5.7430115 8.5769348-6.6706696-.237854-12.0096588.8145142-15.5779266 1.7922363-.635788-1.3366699-1.3340302-2.7073364-2.0841827-4.0234985-.1254272-.9484253-.3853607-1.9204102-.8227692-2.8873291-.5858307-1.2955627-2.041214-2.1068115-3.4971771-2.9780884-.7199402-.6755066-1.4615326-1.2052612-2.2182007-1.5540466-.4948883-.4508667-.9152222-.9581909-1.1908417-1.5672607-1.7770844-3.9269714-17.026001.2536011-20.0848236 3.83255-3.728714 4.3630371-4.4594574 9.9101562-2.9987335 12.9759521.4660645.9779053 1.519104 1.7566833 2.9507751 2.3536987.0387115 4.7287292 2.9306335 16.0187378 8.6237183 24.1864624-3.0203247-14.1183472-2.5339966-17.8355408-2.0354919-21.982666.9725189 7.0931091 3.638916 14.7723083 12.3580322 24.2885132-5.5566101-12.0809021-4.6404724-19.1072083-4.0810852-25.3304749.0787506-.0096436.1583862-.0174866.2368774-.0275574.7818756 5.6193542 3.0385284 11.396698 10.2978363 20.5619202-4.8148956-9.0883789-4.3975677-16.4542847-3.5813141-22.1228027.0570679-.0213013.1132202-.0429688.1695709-.0646057.9960022.6428833 1.9490051 1.4898071 2.8579865 2.7017517 2.7417755 3.6556702 4.0273285 7.4367065 4.5325012 10.0220642-.563324 3.0229187-.0287018 5.9822083 1.4249725 8.1943665-14.2008209 10.3878784-27.7570648 18.8963928-40.3431091 25.6190491-22.2486267-12.8838806-38.2116089-21.4648743-56.719696-24.796814-19.854248-3.5739136-38.1179886 6.0213013-42.3045349 23.0745239-3.3077621 13.4737549 3.3005905 35.3448486 38.4697418 37.0282898 20.795578.9954834 45.9985046-8.6989441 70.8896332-20.9568176 2.1490479 1.1481628 4.3198547 2.3196106 6.5357666 3.5407104 54.3314209 29.9396362 87.4090271 33.8265991 131.2688599 15.5269775-20.8877563 6.315918-58.3184814 16.9123535-108.6470184-10.8158875-7.7909088-4.2923584-14.8930969-8.3387146-21.454483-12.1261902 14.4588318-7.4122314 28.6434631-15.4085693 41.6194763-22.3812561.0662231-.0079956.1252441-.0184937.1675415-.0345154 0 0 1.7719116-.3796997 3.4172668-.8859558 3.6453247-1.1216431 8.7500916-3.1678467 14.8265381-6.0380554.5975952 2.4969177 2.0237427 4.578949 4.1582947 5.4052124 5.2311707 2.0249634 8.9980164.4480896 11.4543152-2.5517883 1.6347046-.8875122 4.0235596-2.618103 5.5054321-3.0170898 1.1364136-.3059692 2.2097168-.6825256 3.2488403-1.0917053-3.1596985 6.3647766-1.9831848 12.482605-1.9831848 12.482605.9109802-7.9240417 4.6844788-12.971405 8.3591003-15.2615662 1.3781433-.5742188 2.7851257-1.0771484 4.2778015-1.4302979 1.3537292-.014801 2.4578552.4851074 3.0572205 1.5039978 1.507782 2.5632019 4.6448059 4.1308899 7.7809448 4.8211365.4978943 3.2011414-.9630432 8.6043701-8.5403442 18.4669189 9.2591858-6.1727905 13.3353271-11.5536499 14.7218018-15.8247986.326355 4.25354-.7634888 10.8294678-6.6216125 22.406189 5.0535278-4.8272095 8.6199341-9.3726196 10.9616089-13.4636536.1353149 4.0725708-.2062988 9.4685059-1.3426208 16.754364 7.624115-14.8763123 6.903717-23.7832031 4.8886719-28.8366089-.0382385-.5550232-.1140137-1.083252-.2258911-1.5840759.2908936-.3700256.5879211-.7752686.9060974-1.2206726 2.531311-3.5438538-1.0125122-7.3408203-3.2907104-8.8595886-1.2674561-.8451843-4.2728882-3.2774963-9.6727295-3.3523865-4.8010864-5.7390442-10.8664246-3.2056274-20.4498291 3.0992432-1.2314453.8102112-2.4103088 1.4598389-3.5234375 1.9799194-.2769775-.769165-.662323-1.6046448-1.1804504-2.4979858 3.4310303-2.0465698 6.9530029-4.2373352 10.5258789-6.5695801 6.786438-4.4299927 11.8336792-8.8972168 15.5863342-13.164978 10.8378296-10.9967957 14.6925659-21.7249451 25.7585449-30.7952576-.0880127.0054932-.1792908.0179749-.2683411.0256042.4275818-.2376709.8546143-.4723816 1.280365-.70047 17.6728516-9.4676514 27.3764954-11.5578613 28.5626221-11.7894592-.0173035.8966064-.0380859 1.8027039-.0666199 2.7291565.1291809-.7739868.258606-1.6693115.3861694-2.6639099.9999084.4684448 5.7662964 2.8336792 10.2690735 7.3364563 4.7033997 4.7033691 7.3659363 9.695343 7.7203064 10.3804932.6058044 3.9933777.9331055 6.4393616.9331055 6.4393616s.0301208-2.4165649-.2033691-7.0329895c3.7355652-3.7350769 22.0047607-22.8070984 36.7758484-52.6502991 14.7835083-29.8677673 20.1287842-53.7590942 21.7076111-62.3637238 9.6967468 27.7784271 14.16922 52.6011505 14.16922 52.6011505s-.0309753-2.7898865-.6517029-8.0016479c2.1281128-7.3801117 11.0049744-40.1008301 13.3754883-80.1131287 2.1185608-35.7590332-1.3741455-59.2497177-2.9755249-67.7049103 13.81961 11.463074 21.2019647 27.8793185 21.2019647 27.8793185zm-375.8153381 285.5311584c-24.3368988-6.9289856-13.5424957-44.9307556 27.3727875-29.0868225 10.0115204 3.8768005 21.6564331 8.801178 34.8839722 15.1968079-27.3904725 13.2860718-49.4067384 17.5485229-62.2567597 13.8900146zm118.6107177-121.7550354c-.2482605-.1312561-.4959412-.2636108-.7430573-.3975525.1794129.0844422.44162.216858.7430573.3975525zm.3842011 59.463501c-1.1826019.27005-2.3406219.7817688-3.4162445 1.5000305-.8332825-1.063385-1.7737732-2.5889893-2.6822815-4.7694092-.1120148-.2688293-.2307281-.5512695-.352478-.839447 1.8641204.9284668 4.0406646 2.2416382 6.451004 4.1088257z"/></svg>